<?xml version="1.0" encoding="UTF-8" standalone="no" ?>
<!DOCTYPE svg PUBLIC "-//W3C//DTD SVG 1.1//EN" "http://www.w3.org/Graphics/SVG/1.1/DTD/svg11.dtd">
<svg xmlns="http://www.w3.org/2000/svg" xmlns:xlink="http://www.w3.org/1999/xlink" version="1.1" width="1080" height="1080" viewBox="0 0 1080 1080" xml:space="preserve">
<desc>Created with Fabric.js 5.2.4</desc>
<defs>
</defs>
<rect x="0" y="0" width="100%" height="100%" fill="transparent"></rect>
<g transform="matrix(1 0 0 1 540 540)" id="b6b7efcf-5498-46a0-8ae4-f48736e35a34"  >
<rect style="stroke: none; stroke-width: 1; stroke-dasharray: none; stroke-linecap: butt; stroke-dashoffset: 0; stroke-linejoin: miter; stroke-miterlimit: 4; fill: rgb(255,255,255); fill-rule: nonzero; opacity: 1; visibility: hidden;" vector-effect="non-scaling-stroke"  x="-540" y="-540" rx="0" ry="0" width="1080" height="1080" />
</g>
<g transform="matrix(1 0 0 1 540 540)" id="c14f7abe-8901-4ba7-acbf-cd278a94daad"  >
</g>
<g transform="matrix(1.66 0 0 1.66 540 540)"  >
<g style="" vector-effect="non-scaling-stroke"   >
		<g transform="matrix(0.13 0 0 -0.13 0 0)"  >
<path style="stroke: none; stroke-width: 1; stroke-dasharray: none; stroke-linecap: butt; stroke-dashoffset: 0; stroke-linejoin: miter; stroke-miterlimit: 4; fill: #5c4943; fill-rule: nonzero; opacity: 1;" vector-effect="non-scaling-stroke"  transform=" translate(-4488.5, -4549.79)" d="M 3000 6893 C 2968 6874 2934 6864 2880 6859 C 2697 6840 2555 6769 2414 6625 C 2322 6531 2299 6474 2325 6405 C 2335 6380 2349 6355 2356 6349 C 2376 6332 2373 6306 2349 6284 C 2337 6274 2308 6240 2284 6209 C 2229 6137 2217 6082 2249 6040 C 2274 6006 2274 6002 2257 5981 C 2224 5941 2207 5857 2207 5741 C 2207 5587 2232 5531 2331 5462 C 2379 5430 2390 5414 2390 5378 C 2390 5345 2459 5219 2508 5160 C 2576 5081 2673 5000 2701 5000 C 2706 5000 2722 4992 2736 4983 C 2756 4971 2785 4966 2854 4966 C 2935 4966 2950 4970 2995 4994 L 3044 5022 L 3062 5000 C 3072 4988 3080 4969 3080 4958 C 3080 4934 3138 4791 3156 4769 C 3177 4745 3173 4705 3142 4653 C 3127 4627 3099 4569 3081 4525 C 3012 4358 2995 4299 2979 4173 C 2967 4075 2968 4050 2989 3910 C 3000 3837 2995 3827 2931 3788 C 2804 3712 2698 3570 2648 3410 C 2622 3326 2619 3105 2644 3045 C 2653 3025 2660 3001 2660 2994 C 2660 2981 2716 2860 2743 2815 C 2783 2749 2842 2670 2893 2619 C 2908 2604 2920 2588 2920 2583 C 2920 2578 2885 2566 2843 2556 C 2800 2546 2750 2532 2732 2524 C 2714 2516 2694 2510 2686 2510 C 2665 2510 2630 2465 2630 2438 C 2630 2405 2677 2369 2750 2348 C 2844 2320 2893 2307 2940 2299 C 2965 2295 3012 2287 3045 2281 C 3198 2254 3562 2214 3830 2195 C 4078 2177 4861 2174 5055 2190 C 5121 2196 5238 2205 5315 2210 C 5392 2216 5475 2224 5500 2230 C 5525 2235 5567 2239 5594 2240 C 5640 2240 5701 2248 5895 2280 C 5934 2287 5988 2295 6015 2299 C 6185 2325 6340 2392 6340 2439 C 6340 2477 6258 2523 6140 2550 C 6030 2575 6032 2573 6082 2631 C 6247 2825 6311 2963 6344 3190 C 6349 3222 6344 3270 6322 3390 C 6314 3429 6282 3503 6235 3590 C 6212 3631 6088 3753 6026 3794 C 5994 3815 5966 3838 5963 3846 C 5960 3854 5965 3887 5974 3919 C 6005 4029 5990 4252 5944 4358 C 5936 4376 5930 4396 5930 4404 C 5930 4422 5867 4566 5825 4643 C 5806 4679 5790 4714 5790 4722 C 5790 4730 5808 4773 5830 4818 C 5852 4862 5870 4908 5870 4919 C 5870 4930 5874 4941 5879 4945 C 5884 4948 5891 4964 5895 4980 C 5899 4996 5905 5012 5909 5015 C 5914 5017 5942 5007 5971 4993 C 6018 4969 6037 4966 6113 4967 C 6175 4968 6207 4973 6225 4984 C 6238 4993 6254 5000 6259 5000 C 6277 5000 6385 5078 6420 5116 C 6494 5197 6547 5291 6575 5393 C 6584 5424 6596 5450 6601 5450 C 6624 5450 6692 5503 6713 5538 C 6741 5583 6770 5682 6770 5734 C 6770 5775 6733 5938 6721 5955 C 6701 5980 6701 6018 6721 6055 C 6741 6092 6741 6094 6724 6134 C 6707 6172 6676 6216 6616 6284 C 6602 6300 6590 6317 6590 6322 C 6590 6326 6604 6349 6620 6372 C 6678 6451 6654 6519 6521 6651 C 6448 6723 6419 6744 6338 6783 C 6285 6809 6235 6830 6228 6830 C 6221 6830 6197 6837 6175 6845 C 6153 6853 6108 6859 6075 6860 C 6026 6860 6007 6865 5970 6890 C 5926 6919 5922 6920 5800 6920 C 5703 6920 5661 6915 5611 6900 C 5448 6849 5331 6759 5226 6603 L 5197 6560 L 5166 6579 C 5110 6614 5037 6650 5025 6650 C 5018 6650 4999 6657 4984 6665 C 4968 6673 4942 6680 4925 6681 C 4909 6681 4867 6687 4832 6693 C 4773 6705 4769 6707 4749 6747 C 4715 6815 4681 6830 4557 6830 C 4432 6830 4373 6810 4273 6735 C 4236 6707 4217 6701 4133 6691 C 4033 6678 3945 6657 3900 6634 C 3886 6627 3868 6619 3860 6616 C 3852 6612 3832 6601 3815 6591 C 3799 6580 3780 6571 3773 6571 C 3766 6570 3743 6596 3721 6628 C 3658 6719 3590 6785 3505 6837 C 3471 6858 3398 6890 3385 6890 C 3378 6890 3356 6897 3337 6905 C 3311 6916 3264 6920 3173 6920 C 3052 6920 3042 6918 3000 6893 z M 3286 6695 C 3415 6643 3510 6561 3568 6450 C 3585 6418 3620 6315 3620 6297 C 3620 6274 3664 6230 3687 6230 C 3698 6230 3714 6237 3721 6246 C 3734 6262 3864 6362 3905 6387 C 3936 6407 3990 6431 4044 6450 C 4092 6467 4094 6467 4130 6449 C 4193 6416 4251 6438 4362 6536 C 4422 6590 4477 6620 4525 6627 C 4565 6632 4570 6630 4570 6614 C 4570 6591 4537 6553 4459 6487 C 4428 6461 4400 6431 4397 6421 C 4389 6390 4413 6356 4445 6350 C 4476 6344 4479 6334 4466 6293 C 4461 6277 4467 6263 4489 6238 C 4518 6205 4520 6205 4617 6202 C 4776 6196 4850 6227 4850 6299 C 4850 6346 4823 6372 4755 6390 C 4682 6409 4679 6416 4725 6456 C 4753 6481 4771 6489 4785 6484 C 4796 6481 4823 6475 4845 6470 C 4901 6459 4946 6443 5014 6408 C 5073 6379 5213 6278 5239 6246 C 5257 6225 5293 6226 5312 6248 C 5321 6257 5336 6290 5345 6320 C 5388 6455 5430 6523 5515 6598 C 5593 6666 5696 6710 5779 6710 C 5834 6710 5870 6692 5870 6664 C 5870 6640 5903 6632 5982 6637 C 6123 6647 6256 6603 6361 6512 C 6418 6462 6422 6434 6378 6412 C 6362 6405 6347 6388 6344 6374 C 6338 6352 6349 6338 6419 6268 C 6463 6224 6500 6183 6500 6176 C 6500 6169 6487 6151 6470 6135 C 6433 6100 6432 6069 6465 6015 C 6518 5928 6560 5812 6560 5755 C 6559 5700 6530 5665 6485 5668 C 6444 5671 6438 5661 6417 5565 C 6384 5412 6321 5307 6210 5219 C 6168 5187 6120 5160 6101 5160 C 6078 5160 6050 5203 6050 5239 C 6050 5288 6013 5328 5982 5311 C 5939 5288 5933 5296 5927 5378 C 5915 5526 5875 5684 5818 5808 C 5792 5865 5804 5879 5855 5851 C 5958 5796 6049 5705 6133 5573 C 6154 5538 6178 5510 6186 5510 C 6209 5510 6223 5552 6229 5640 L 6235 5725 L 6269 5730 C 6290 5733 6310 5745 6322 5761 C 6339 5783 6340 5790 6328 5816 C 6287 5910 6148 6048 6039 6101 C 5940 6150 5892 6170 5875 6170 C 5847 6170 5850 6190 5881 6205 C 5921 6226 6012 6250 6051 6250 C 6071 6250 6089 6259 6105 6276 C 6135 6308 6135 6307 6112 6345 C 6085 6388 6016 6410 5910 6410 C 5824 6410 5762 6395 5680 6354 C 5628 6328 5526 6221 5501 6168 C 5471 6101 5472 6008 5504 5949 C 5614 5748 5674 5584 5699 5415 C 5705 5377 5712 5326 5716 5302 C 5723 5254 5696 5065 5674 5008 C 5617 4856 5575 4786 5487 4693 C 5413 4615 5352 4571 5250 4520 C 5149 4470 5081 4444 5020 4431 C 5001 4426 4967 4418 4945 4412 C 4821 4379 4699 4367 4490 4367 C 4249 4366 4078 4389 3925 4441 C 3909 4447 3882 4455 3865 4460 C 3839 4467 3791 4486 3715 4521 C 3704 4526 3682 4539 3665 4550 C 3649 4561 3625 4574 3612 4580 C 3567 4599 3414 4764 3369 4840 C 3286 4981 3268 5049 3263 5244 C 3258 5406 3264 5452 3307 5600 C 3331 5684 3390 5828 3421 5880 C 3456 5939 3490 6027 3490 6062 C 3490 6155 3379 6311 3279 6357 C 3168 6409 3032 6426 2938 6400 C 2832 6370 2804 6270 2898 6255 C 3016 6235 3117 6199 3105 6180 C 3101 6174 3092 6170 3085 6170 C 3061 6170 2949 6120 2875 6076 C 2779 6018 2630 5845 2630 5791 C 2630 5765 2668 5730 2697 5730 C 2719 5730 2746 5697 2736 5681 C 2733 5677 2736 5638 2743 5594 C 2759 5489 2777 5488 2836 5584 C 2878 5654 3008 5794 3045 5811 C 3056 5816 3085 5832 3109 5846 C 3134 5861 3156 5868 3161 5863 C 3166 5858 3158 5829 3142 5795 C 3104 5717 3090 5675 3080 5620 C 3075 5595 3067 5564 3062 5550 C 3057 5536 3049 5476 3045 5417 C 3038 5304 3028 5284 2991 5307 C 2980 5314 2968 5314 2953 5307 C 2929 5296 2926 5289 2915 5227 C 2907 5177 2874 5154 2834 5172 C 2805 5184 2739 5231 2710 5260 C 2626 5345 2540 5524 2540 5617 C 2540 5654 2518 5674 2488 5667 C 2458 5659 2431 5676 2414 5715 C 2403 5743 2403 5758 2415 5815 C 2422 5852 2434 5888 2439 5893 C 2445 5899 2450 5910 2450 5917 C 2450 5924 2468 5959 2490 5995 C 2512 6031 2530 6069 2530 6079 C 2530 6089 2514 6114 2495 6134 C 2476 6155 2460 6176 2460 6182 C 2460 6189 2499 6230 2546 6276 C 2625 6351 2631 6360 2620 6380 C 2614 6392 2596 6406 2580 6411 C 2535 6427 2534 6449 2577 6490 C 2687 6597 2835 6650 2987 6637 C 3064 6631 3083 6638 3105 6680 C 3120 6709 3124 6710 3184 6710 C 3219 6710 3265 6703 3286 6695 z M 3384 4471 C 3428 4427 3593 4323 3660 4296 C 3685 4286 3719 4272 3735 4265 C 3752 4258 3778 4249 3793 4244 C 3820 4236 3834 4216 3875 4130 C 3889 4100 3912 4016 3937 3901 C 3947 3855 3963 3807 3972 3795 C 3981 3783 4015 3765 4047 3755 C 4218 3701 4316 3613 4354 3481 C 4374 3411 4374 3386 4352 3322 C 4317 3224 4276 3204 4239 3269 C 4193 3352 4099 3383 4058 3329 C 4038 3303 4038 3303 4059 3264 C 4099 3189 4080 3130 4016 3130 C 3964 3130 3890 3192 3801 3310 C 3770 3351 3734 3405 3721 3430 C 3687 3495 3672 3508 3610 3537 C 3552 3564 3486 3596 3443 3619 C 3429 3626 3389 3660 3355 3694 C 3192 3854 3158 4052 3246 4335 C 3269 4407 3320 4510 3334 4510 C 3340 4509 3362 4492 3384 4471 z M 5664 4455 C 5720 4347 5770 4159 5770 4058 C 5770 3950 5719 3813 5646 3728 C 5600 3675 5495 3598 5430 3571 C 5400 3558 5371 3544 5366 3539 C 5360 3534 5349 3530 5341 3530 C 5314 3530 5273 3488 5239 3425 C 5166 3290 5043 3153 4975 3133 C 4944 3123 4932 3124 4909 3136 C 4884 3148 4880 3156 4880 3192 C 4880 3216 4887 3241 4896 3251 C 4918 3275 4917 3330 4895 3346 C 4853 3377 4783 3347 4734 3279 C 4716 3254 4695 3235 4685 3235 C 4674 3235 4653 3253 4636 3278 C 4608 3318 4606 3327 4606 3408 C 4606 3482 4610 3503 4632 3545 C 4661 3602 4687 3632 4745 3675 C 4784 3705 4852 3740 4870 3740 C 4875 3740 4905 3749 4936 3761 C 4984 3779 4995 3788 5011 3824 C 5021 3846 5030 3878 5030 3894 C 5030 3939 5084 4121 5107 4155 C 5114 4166 5120 4181 5120 4189 C 5120 4210 5160 4250 5181 4250 C 5238 4250 5484 4386 5580 4470 C 5599 4487 5621 4499 5629 4498 C 5637 4496 5653 4477 5664 4455 z M 4315 4140 C 4422 4126 4560 4128 4712 4147 C 4788 4156 4852 4161 4856 4157 C 4860 4154 4855 4122 4846 4088 C 4836 4053 4826 4011 4823 3993 C 4819 3966 4810 3957 4771 3940 C 4672 3895 4653 3884 4600 3844 C 4570 3820 4532 3788 4517 3771 C 4490 3742 4460 3730 4460 3748 C 4460 3759 4399 3822 4355 3856 C 4317 3885 4190 3950 4171 3950 C 4161 3950 4130 4034 4130 4062 C 4130 4073 4123 4094 4115 4111 C 4106 4127 4102 4146 4106 4152 C 4113 4163 4177 4160 4315 4140 z M 3146 3583 C 3204 3505 3285 3442 3410 3379 C 3457 3355 3502 3329 3511 3320 C 3520 3312 3564 3256 3610 3195 C 3656 3135 3711 3067 3732 3045 C 3773 3002 3780 2973 3753 2963 C 3743 2960 3716 2942 3693 2923 C 3601 2849 3556 2676 3584 2501 L 3593 2447 L 3564 2453 C 3548 2456 3516 2465 3492 2474 C 3194 2586 2937 2842 2856 3109 C 2805 3277 2880 3473 3039 3588 C 3063 3606 3091 3620 3100 3620 C 3110 3620 3130 3603 3146 3583 z M 5937 3576 C 6078 3473 6144 3315 6115 3148 C 6107 3106 6097 3063 6092 3053 C 6087 3043 6073 3015 6061 2990 C 5956 2772 5708 2555 5465 2471 C 5369 2437 5350 2444 5375 2504 C 5404 2572 5386 2720 5337 2829 C 5314 2879 5252 2946 5215 2960 C 5179 2974 5184 2995 5238 3057 C 5264 3087 5323 3162 5370 3223 C 5417 3284 5462 3337 5470 3341 C 5478 3345 5517 3363 5555 3382 C 5594 3400 5652 3435 5685 3460 C 5745 3505 5839 3598 5840 3613 C 5840 3632 5883 3616 5937 3576 z M 4538 3070 C 4570 3042 4619 3008 4648 2994 C 4676 2981 4700 2966 4700 2961 C 4700 2957 4686 2928 4670 2898 C 4632 2828 4612 2707 4626 2635 C 4641 2556 4639 2553 4554 2545 C 4473 2538 4328 2548 4319 2561 C 4316 2566 4317 2594 4321 2623 C 4335 2726 4307 2859 4257 2933 C 4242 2955 4257 2981 4292 2991 C 4326 3000 4437 3076 4453 3101 C 4459 3111 4469 3120 4473 3120 C 4478 3120 4507 3097 4538 3070 z M 4081 2787 C 4096 2769 4099 2747 4099 2670 C 4099 2548 4073 2480 4010 2437 C 3975 2412 3895 2414 3862 2441 C 3810 2481 3800 2508 3800 2605 C 3800 2696 3809 2723 3850 2761 C 3916 2821 4041 2835 4081 2787 z M 5068 2788 C 5141 2743 5168 2672 5155 2555 C 5150 2500 5144 2487 5113 2456 C 5081 2424 5071 2420 5026 2420 C 4912 2420 4850 2512 4850 2678 C 4851 2770 4864 2802 4906 2813 C 4941 2823 5035 2808 5068 2788 z" stroke-linecap="round" />
</g>
		<g transform="matrix(0.13 0 0 -0.13 -1.19 -82.83)"  >
<path style="stroke: none; stroke-width: 1; stroke-dasharray: none; stroke-linecap: butt; stroke-dashoffset: 0; stroke-linejoin: miter; stroke-miterlimit: 4; fill: #5c4943; fill-rule: nonzero; opacity: 1;" vector-effect="non-scaling-stroke"  transform=" translate(-4479.58, -5170.98)" d="M 4393 5666 C 4370 5660 4345 5649 4338 5642 C 4332 5636 4321 5630 4315 5630 C 4291 5630 4198 5514 4187 5470 C 4184 5456 4177 5427 4171 5405 C 4150 5320 4130 5214 4130 5185 C 4130 5169 4123 5118 4115 5073 C 4107 5027 4103 4975 4107 4958 C 4115 4912 4146 4854 4166 4846 C 4179 4841 4181 4832 4176 4805 C 4167 4760 4189 4719 4237 4689 C 4289 4657 4391 4656 4442 4688 C 4476 4709 4506 4709 4521 4687 C 4532 4672 4612 4659 4657 4666 C 4684 4670 4718 4685 4743 4704 C 4781 4733 4785 4741 4788 4785 C 4790 4822 4799 4844 4823 4874 C 4855 4914 4855 4915 4853 5020 C 4851 5155 4806 5407 4768 5495 C 4708 5636 4549 5708 4393 5666 z M 4573 5444 C 4593 5424 4607 5403 4604 5399 C 4601 5394 4570 5390 4535 5390 C 4475 5390 4468 5388 4435 5355 C 4416 5335 4400 5312 4400 5302 C 4400 5293 4392 5258 4382 5225 C 4366 5173 4361 5165 4339 5165 C 4319 5165 4314 5171 4312 5198 C 4308 5235 4344 5384 4362 5409 C 4399 5459 4435 5479 4486 5480 C 4531 5480 4541 5476 4573 5444 z" stroke-linecap="round" />
</g>
		<g transform="matrix(0.13 0 0 -0.13 -91.92 -106.45)"  >
<path style="stroke: none; stroke-width: 1; stroke-dasharray: none; stroke-linecap: butt; stroke-dashoffset: 0; stroke-linejoin: miter; stroke-miterlimit: 4; fill: #5c4943; fill-rule: nonzero; opacity: 1;" vector-effect="non-scaling-stroke"  transform=" translate(-3799.07, -5348.18)" d="M 3735 5513 C 3674 5497 3620 5418 3620 5344 C 3620 5303 3626 5285 3650 5252 C 3695 5190 3724 5175 3796 5176 C 3846 5176 3867 5182 3898 5202 C 3972 5251 3999 5344 3961 5418 C 3918 5502 3833 5537 3735 5513 z M 3872 5433 C 3912 5397 3879 5341 3825 5354 C 3796 5361 3786 5389 3799 5424 C 3811 5454 3844 5459 3872 5433 z" stroke-linecap="round" />
</g>
		<g transform="matrix(0.13 0 0 -0.13 90.1 -106.21)"  >
<path style="stroke: none; stroke-width: 1; stroke-dasharray: none; stroke-linecap: butt; stroke-dashoffset: 0; stroke-linejoin: miter; stroke-miterlimit: 4; fill: #5c4943; fill-rule: nonzero; opacity: 1;" vector-effect="non-scaling-stroke"  transform=" translate(-5164.27, -5346.37)" d="M 5095 5509 C 4990 5478 4955 5309 5036 5226 C 5099 5161 5197 5156 5274 5214 C 5325 5254 5344 5304 5335 5377 C 5322 5485 5214 5544 5095 5509 z M 5242 5433 C 5264 5413 5265 5392 5243 5368 C 5223 5346 5192 5345 5168 5367 C 5146 5387 5146 5394 5166 5425 C 5185 5454 5216 5457 5242 5433 z" stroke-linecap="round" />
</g>
</g>
</g>
</svg>